<svg width="45" height="45" viewBox="0 0 45 45" fill="none" xmlns="http://www.w3.org/2000/svg">
<g filter="url(#filter0_bii_60_21)">
<circle cx="22.5" cy="22.5" r="22.5" fill="#090011"/>
</g>
<g filter="url(#filter1_bii_60_21)">
<circle cx="22.5" cy="22.5" r="22.5" fill="#D9D9D9" fill-opacity="0.1"/>
</g>
<path d="M21.0588 31.8824C21.0588 32.3972 21.2633 32.891 21.6274 33.255C21.9914 33.6191 22.4852 33.8236 23 33.8236C23.5148 33.8236 24.0086 33.6191 24.3726 33.255C24.7367 32.891 24.9412 32.3972 24.9412 31.8824V23.4706H33.3529C33.8678 23.4706 34.3615 23.2661 34.7255 22.9021C35.0896 22.538 35.2941 22.0443 35.2941 21.5295C35.2941 21.0146 35.0896 20.5209 34.7255 20.1568C34.3615 19.7928 33.8678 19.5883 33.3529 19.5883H24.9412V11.1765C24.9412 10.6617 24.7367 10.168 24.3726 9.80391C24.0086 9.43987 23.5148 9.23535 23 9.23535C22.4852 9.23535 21.9914 9.43987 21.6274 9.80391C21.2633 10.168 21.0588 10.6617 21.0588 11.1765V19.5883H12.647C12.1322 19.5883 11.6385 19.7928 11.2744 20.1568C10.9104 20.5209 10.7059 21.0146 10.7059 21.5295C10.7059 22.0443 10.9104 22.538 11.2744 22.9021C11.6385 23.2661 12.1322 23.4706 12.647 23.4706H21.0588V31.8824Z" fill="#F8F8F8"/>
<defs>
<filter id="filter0_bii_60_21" x="-13.4667" y="-13.4667" width="71.9333" height="71.9333" filterUnits="userSpaceOnUse" color-interpolation-filters="sRGB">
<feFlood flood-opacity="0" result="BackgroundImageFix"/>
<feGaussianBlur in="BackgroundImageFix" stdDeviation="6.73333"/>
<feComposite in2="SourceAlpha" operator="in" result="effect1_backgroundBlur_60_21"/>
<feBlend mode="normal" in="SourceGraphic" in2="effect1_backgroundBlur_60_21" result="shape"/>
<feColorMatrix in="SourceAlpha" type="matrix" values="0 0 0 0 0 0 0 0 0 0 0 0 0 0 0 0 0 0 127 0" result="hardAlpha"/>
<feOffset dx="-6.73333" dy="6.73333"/>
<feGaussianBlur stdDeviation="3.36667"/>
<feComposite in2="hardAlpha" operator="arithmetic" k2="-1" k3="1"/>
<feColorMatrix type="matrix" values="0 0 0 0 1 0 0 0 0 1 0 0 0 0 1 0 0 0 0.1 0"/>
<feBlend mode="normal" in2="shape" result="effect2_innerShadow_60_21"/>
<feColorMatrix in="SourceAlpha" type="matrix" values="0 0 0 0 0 0 0 0 0 0 0 0 0 0 0 0 0 0 127 0" result="hardAlpha"/>
<feOffset dx="6.73333" dy="-6.73333"/>
<feGaussianBlur stdDeviation="3.36667"/>
<feComposite in2="hardAlpha" operator="arithmetic" k2="-1" k3="1"/>
<feColorMatrix type="matrix" values="0 0 0 0 0.646745 0 0 0 0 0.646745 0 0 0 0 0.646745 0 0 0 0.1 0"/>
<feBlend mode="normal" in2="effect2_innerShadow_60_21" result="effect3_innerShadow_60_21"/>
</filter>
<filter id="filter1_bii_60_21" x="-13.4667" y="-13.4667" width="71.9333" height="71.9333" filterUnits="userSpaceOnUse" color-interpolation-filters="sRGB">
<feFlood flood-opacity="0" result="BackgroundImageFix"/>
<feGaussianBlur in="BackgroundImageFix" stdDeviation="6.73333"/>
<feComposite in2="SourceAlpha" operator="in" result="effect1_backgroundBlur_60_21"/>
<feBlend mode="normal" in="SourceGraphic" in2="effect1_backgroundBlur_60_21" result="shape"/>
<feColorMatrix in="SourceAlpha" type="matrix" values="0 0 0 0 0 0 0 0 0 0 0 0 0 0 0 0 0 0 127 0" result="hardAlpha"/>
<feOffset dx="-6.73333" dy="6.73333"/>
<feGaussianBlur stdDeviation="3.36667"/>
<feComposite in2="hardAlpha" operator="arithmetic" k2="-1" k3="1"/>
<feColorMatrix type="matrix" values="0 0 0 0 1 0 0 0 0 1 0 0 0 0 1 0 0 0 0.1 0"/>
<feBlend mode="normal" in2="shape" result="effect2_innerShadow_60_21"/>
<feColorMatrix in="SourceAlpha" type="matrix" values="0 0 0 0 0 0 0 0 0 0 0 0 0 0 0 0 0 0 127 0" result="hardAlpha"/>
<feOffset dx="6.73333" dy="-6.73333"/>
<feGaussianBlur stdDeviation="3.36667"/>
<feComposite in2="hardAlpha" operator="arithmetic" k2="-1" k3="1"/>
<feColorMatrix type="matrix" values="0 0 0 0 0.646745 0 0 0 0 0.646745 0 0 0 0 0.646745 0 0 0 0.1 0"/>
<feBlend mode="normal" in2="effect2_innerShadow_60_21" result="effect3_innerShadow_60_21"/>
</filter>
</defs>
</svg>
