<svg width="35" height="27" viewBox="0 0 35 27" fill="none" xmlns="http://www.w3.org/2000/svg">
<path d="M23.1875 23.5C23.1875 23.8481 23.3258 24.1819 23.5719 24.4281C23.8181 24.6742 24.1519 24.8125 24.5 24.8125C24.8481 24.8125 25.1819 24.6742 25.4281 24.4281C25.6742 24.1819 25.8125 23.8481 25.8125 23.5V17.8125H31.5C31.8481 17.8125 32.1819 17.6742 32.4281 17.4281C32.6742 17.1819 32.8125 16.8481 32.8125 16.5C32.8125 16.1519 32.6742 15.8181 32.4281 15.5719C32.1819 15.3258 31.8481 15.1875 31.5 15.1875H25.8125V9.5C25.8125 9.1519 25.6742 8.81806 25.4281 8.57192C25.1819 8.32578 24.8481 8.1875 24.5 8.1875C24.1519 8.1875 23.8181 8.32578 23.5719 8.57192C23.3258 8.81806 23.1875 9.1519 23.1875 9.5V15.1875H17.5C17.1519 15.1875 16.8181 15.3258 16.5719 15.5719C16.3258 15.8181 16.1875 16.1519 16.1875 16.5C16.1875 16.8481 16.3258 17.1819 16.5719 17.4281C16.8181 17.6742 17.1519 17.8125 17.5 17.8125H23.1875V23.5Z" fill="#F8F8F8"/>
<path fill-rule="evenodd" clip-rule="evenodd" d="M0 1.23387C0 0.90663 0.129997 0.592789 0.361393 0.361393C0.592789 0.129997 0.90663 0 1.23387 0H20.9759C21.3031 0 21.6169 0.129997 21.8483 0.361393C22.0797 0.592789 22.2097 0.90663 22.2097 1.23387C22.2097 1.56112 22.0797 1.87496 21.8483 2.10635C21.6169 2.33775 21.3031 2.46775 20.9759 2.46775H1.23387C0.90663 2.46775 0.592789 2.33775 0.361393 2.10635C0.129997 1.87496 0 1.56112 0 1.23387ZM0 7.81453C0 7.48729 0.129997 7.17345 0.361393 6.94205C0.592789 6.71066 0.90663 6.58066 1.23387 6.58066H17.6855C18.0128 6.58066 18.3266 6.71066 18.558 6.94205C18.7894 7.17345 18.9194 7.48729 18.9194 7.81453C18.9194 8.14178 18.7894 8.45562 18.558 8.68701C18.3266 8.91841 18.0128 9.04841 17.6855 9.04841H1.23387C0.90663 9.04841 0.592789 8.91841 0.361393 8.68701C0.129997 8.45562 0 8.14178 0 7.81453ZM0 14.3952C0 14.068 0.129997 13.7541 0.361393 13.5227C0.592789 13.2913 0.90663 13.1613 1.23387 13.1613H11.1049C11.4321 13.1613 11.7459 13.2913 11.9773 13.5227C12.2087 13.7541 12.3387 14.068 12.3387 14.3952C12.3387 14.7224 12.2087 15.0363 11.9773 15.2677C11.7459 15.4991 11.4321 15.6291 11.1049 15.6291H1.23387C0.90663 15.6291 0.592789 15.4991 0.361393 15.2677C0.129997 15.0363 0 14.7224 0 14.3952ZM0 20.9759C0 20.6486 0.129997 20.3348 0.361393 20.1034C0.592789 19.872 0.90663 19.742 1.23387 19.742H9.4597C9.78694 19.742 10.1008 19.872 10.3322 20.1034C10.5636 20.3348 10.6936 20.6486 10.6936 20.9759C10.6936 21.3031 10.5636 21.6169 10.3322 21.8483C10.1008 22.0797 9.78694 22.2097 9.4597 22.2097H1.23387C0.90663 22.2097 0.592789 22.0797 0.361393 21.8483C0.129997 21.6169 0 21.3031 0 20.9759Z" fill="#F8F8F8"/>
</svg>
