<svg width="230" height="230" viewBox="0 0 230 230" fill="none" xmlns="http://www.w3.org/2000/svg">
<rect x="-7.62939e-06" width="230" height="230" rx="15" fill="#08000F"/>
<rect x="0.499992" y="0.5" width="229" height="229" rx="14.5" stroke="url(#paint0_linear_81_29)" stroke-opacity="0.5"/>
<g filter="url(#filter0_f_81_29)">
<mask id="path-3-inside-1_81_29" fill="white">
<path d="M169.53 34.5299C155.287 25.4092 138.878 20.2323 121.98 19.5279C105.081 18.8235 88.2986 22.6169 73.3458 30.5206C58.3931 38.4243 45.806 50.1552 36.8703 64.515C27.9345 78.8749 22.9702 95.3492 22.4844 112.255L27.5706 112.401C28.0305 96.3956 32.7305 80.7986 41.1904 67.2034C49.6504 53.6082 61.5672 42.502 75.7237 35.0191C89.8802 27.5363 105.769 23.9449 121.768 24.6118C137.766 25.2786 153.301 30.1799 166.786 38.8149L169.53 34.5299Z"/>
</mask>
<path d="M169.53 34.5299C155.287 25.4092 138.878 20.2323 121.98 19.5279C105.081 18.8235 88.2986 22.6169 73.3458 30.5206C58.3931 38.4243 45.806 50.1552 36.8703 64.515C27.9345 78.8749 22.9702 95.3492 22.4844 112.255L27.5706 112.401C28.0305 96.3956 32.7305 80.7986 41.1904 67.2034C49.6504 53.6082 61.5672 42.502 75.7237 35.0191C89.8802 27.5363 105.769 23.9449 121.768 24.6118C137.766 25.2786 153.301 30.1799 166.786 38.8149L169.53 34.5299Z" stroke="url(#paint1_linear_81_29)" stroke-opacity="0.5" stroke-width="10" mask="url(#path-3-inside-1_81_29)"/>
</g>
<g filter="url(#filter1_f_81_29)">
<mask id="path-4-inside-2_81_29" fill="white">
<path d="M154.792 54.8115C144.217 48.0397 131.98 44.3078 119.407 44.0202C106.834 43.7326 94.404 46.9002 83.4648 53.1798C72.5256 59.4595 63.4942 68.6116 57.3493 79.6443C51.2044 90.6771 48.1804 103.17 48.605 115.768L54.5366 115.537C54.1485 104.023 56.9121 92.6064 62.5278 82.5238C68.1435 72.4413 76.3971 64.0773 86.3942 58.3385C96.3913 52.5997 107.751 49.7048 119.241 49.9677C130.731 50.2305 141.915 53.6411 151.579 59.8297L154.792 54.8115Z"/>
</mask>
<path d="M154.792 54.8115C144.217 48.0397 131.98 44.3078 119.407 44.0202C106.834 43.7326 94.404 46.9002 83.4648 53.1798C72.5256 59.4595 63.4942 68.6116 57.3493 79.6443C51.2044 90.6771 48.1804 103.17 48.605 115.768L54.5366 115.537C54.1485 104.023 56.9121 92.6064 62.5278 82.5238C68.1435 72.4413 76.3971 64.0773 86.3942 58.3385C96.3913 52.5997 107.751 49.7048 119.241 49.9677C130.731 50.2305 141.915 53.6411 151.579 59.8297L154.792 54.8115Z" stroke="url(#paint2_linear_81_29)" stroke-opacity="0.5" stroke-width="10" mask="url(#path-4-inside-2_81_29)"/>
</g>
<g filter="url(#filter2_f_81_29)">
<mask id="path-5-inside-3_81_29" fill="white">
<path d="M143.949 79.0303C136.994 74.5766 128.966 72.0834 120.712 71.8139C112.457 71.5444 104.283 73.5086 97.0527 77.4992C89.822 81.4898 83.803 87.3586 79.631 94.4861C75.4591 101.614 73.289 109.735 73.3498 117.994L78.7484 117.954C78.6947 110.668 80.6094 103.502 84.2903 97.2134C87.9712 90.9248 93.2817 85.7467 99.6613 82.2259C106.041 78.705 113.253 76.972 120.535 77.2097C127.818 77.4475 134.902 79.6472 141.038 83.5767L143.949 79.0303Z"/>
</mask>
<path d="M143.949 79.0303C136.994 74.5766 128.966 72.0834 120.712 71.8139C112.457 71.5444 104.283 73.5086 97.0527 77.4992C89.822 81.4898 83.803 87.3586 79.631 94.4861C75.4591 101.614 73.289 109.735 73.3498 117.994L78.7484 117.954C78.6947 110.668 80.6094 103.502 84.2903 97.2134C87.9712 90.9248 93.2817 85.7467 99.6613 82.2259C106.041 78.705 113.253 76.972 120.535 77.2097C127.818 77.4475 134.902 79.6472 141.038 83.5767L143.949 79.0303Z" stroke="url(#paint3_linear_81_29)" stroke-opacity="0.5" stroke-width="10" mask="url(#path-5-inside-3_81_29)"/>
</g>
<g filter="url(#filter3_f_81_29)">
<mask id="path-6-inside-4_81_29" fill="white">
<path d="M213.126 114.558C213.128 132.388 208.141 149.863 198.73 165.006C189.319 180.15 175.858 192.359 159.87 200.252C143.882 208.145 126.005 211.407 108.26 209.67C90.5145 207.932 73.6094 201.265 59.4559 190.421L62.4375 186.529C75.8648 196.817 91.9026 203.142 108.737 204.79C125.572 206.439 142.532 203.344 157.7 195.856C172.868 188.368 185.638 176.786 194.566 162.419C203.495 148.052 208.225 131.473 208.223 114.558L213.126 114.558Z"/>
</mask>
<path d="M213.126 114.558C213.128 132.388 208.141 149.863 198.73 165.006C189.319 180.15 175.858 192.359 159.87 200.252C143.882 208.145 126.005 211.407 108.26 209.67C90.5145 207.932 73.6094 201.265 59.4559 190.421L62.4375 186.529C75.8648 196.817 91.9026 203.142 108.737 204.79C125.572 206.439 142.532 203.344 157.7 195.856C172.868 188.368 185.638 176.786 194.566 162.419C203.495 148.052 208.225 131.473 208.223 114.558L213.126 114.558Z" stroke="url(#paint4_linear_81_29)" stroke-opacity="0.5" stroke-width="10" mask="url(#path-6-inside-4_81_29)"/>
</g>
<g filter="url(#filter4_f_81_29)">
<mask id="path-7-inside-5_81_29" fill="white">
<path d="M190.193 118.383C190.195 131.221 186.604 143.803 179.828 154.706C173.052 165.61 163.36 174.4 151.849 180.083C140.338 185.766 127.466 188.114 114.689 186.864C101.913 185.613 89.7412 180.812 79.5507 173.004L81.9443 169.88C91.5518 177.241 103.027 181.767 115.073 182.947C127.119 184.126 139.254 181.912 150.107 176.554C160.96 171.196 170.097 162.909 176.485 152.629C182.874 142.349 186.259 130.487 186.257 118.383L190.193 118.383Z"/>
</mask>
<path d="M190.193 118.383C190.195 131.221 186.604 143.803 179.828 154.706C173.052 165.61 163.36 174.4 151.849 180.083C140.338 185.766 127.466 188.114 114.689 186.864C101.913 185.613 89.7412 180.812 79.5507 173.004L81.9443 169.88C91.5518 177.241 103.027 181.767 115.073 182.947C127.119 184.126 139.254 181.912 150.107 176.554C160.96 171.196 170.097 162.909 176.485 152.629C182.874 142.349 186.259 130.487 186.257 118.383L190.193 118.383Z" stroke="url(#paint5_linear_81_29)" stroke-opacity="0.5" stroke-width="10" mask="url(#path-7-inside-5_81_29)"/>
</g>
<g filter="url(#filter5_f_81_29)">
<mask id="path-8-inside-6_81_29" fill="white">
<path d="M167.26 118.384C167.261 126.942 164.867 135.33 160.35 142.599C155.832 149.869 149.371 155.729 141.697 159.517C134.023 163.306 125.442 164.872 116.924 164.038C108.406 163.204 100.292 160.003 93.4982 154.798L96.915 150.339C102.877 154.906 109.997 157.715 117.471 158.446C124.946 159.178 132.476 157.804 139.21 154.48C145.944 151.155 151.614 146.013 155.578 139.634C159.542 133.255 161.643 125.895 161.642 118.385L167.26 118.384Z"/>
</mask>
<path d="M167.26 118.384C167.261 126.942 164.867 135.33 160.35 142.599C155.832 149.869 149.371 155.729 141.697 159.517C134.023 163.306 125.442 164.872 116.924 164.038C108.406 163.204 100.292 160.003 93.4982 154.798L96.915 150.339C102.877 154.906 109.997 157.715 117.471 158.446C124.946 159.178 132.476 157.804 139.21 154.48C145.944 151.155 151.614 146.013 155.578 139.634C159.542 133.255 161.643 125.895 161.642 118.385L167.26 118.384Z" stroke="url(#paint6_linear_81_29)" stroke-opacity="0.5" stroke-width="10" mask="url(#path-8-inside-6_81_29)"/>
</g>
<path d="M65.1791 135.276C64.8784 134.883 64.5063 134.815 64.0629 135.071L60.9035 136.895C61.205 137.46 61.5065 138.024 61.808 138.589C62.128 139.144 62.4586 139.716 62.7999 140.308L67.3755 148.234C67.6421 148.696 67.9088 149.158 68.1754 149.619C68.4498 150.052 68.7204 150.5 68.987 150.961C69.2906 151.402 69.651 151.514 70.0681 151.298L71.3952 150.717C71.8706 150.516 72.2203 150.61 72.4443 150.998C72.679 151.404 72.5653 151.741 72.1035 152.007L65.0642 156.071C64.6023 156.338 64.254 156.268 64.0194 155.861C63.7847 155.455 63.8784 155.105 64.3005 154.812L65.4677 153.954C65.8606 153.653 65.9437 153.285 65.7168 152.849C65.4608 152.406 65.2049 151.962 64.9489 151.519C64.7007 151.046 64.4487 150.588 64.1927 150.145L59.6171 142.219C59.2758 141.628 58.9359 141.06 58.5975 140.517C58.2668 139.944 57.927 139.376 57.5779 138.814L54.4185 140.638C53.9751 140.894 53.8483 141.251 54.0382 141.708L54.9535 144.061C55.1434 144.518 55.0166 144.875 54.5732 145.131L54.1298 145.387C53.6679 145.653 53.3129 145.55 53.0647 145.078L51.1757 141.55C50.9461 141.066 51.0529 140.697 51.4963 140.441L65.3532 132.441C65.7966 132.185 66.1701 132.278 66.4737 132.718L68.5844 136.119C68.8695 136.57 68.7811 136.929 68.3192 137.195L67.8758 137.451C67.4324 137.707 67.0603 137.639 66.7595 137.246L65.1791 135.276ZM76.7311 131.822C77.6918 131.267 78.676 130.946 79.6838 130.856C80.6809 130.749 81.6379 130.849 82.5548 131.157C83.4796 131.436 84.3297 131.906 85.1053 132.567C85.8886 133.199 86.5523 133.986 87.0963 134.928C87.6509 135.889 88.0111 136.875 88.177 137.888C88.3507 138.872 88.3363 139.828 88.134 140.758C87.9211 141.669 87.5187 142.53 86.9269 143.339C86.3244 144.131 85.5335 144.809 84.5543 145.374C83.5751 145.939 82.5923 146.285 81.6058 146.411C80.6087 146.519 79.6624 146.437 78.7668 146.166C77.8606 145.876 77.0158 145.415 76.2324 144.784C75.4568 144.123 74.7917 143.312 74.2371 142.351C73.6932 141.409 73.329 140.437 73.1447 139.435C72.9788 138.422 72.997 137.451 73.1993 136.521C73.4201 135.581 73.8172 134.711 74.3905 133.912C74.9717 133.084 75.7518 132.387 76.7311 131.822ZM77.451 133.069C75.3263 134.296 75.3305 136.757 77.4636 140.452C79.5754 144.11 81.6937 145.326 83.8184 144.099C85.9431 142.873 85.9496 140.43 83.8378 136.772C81.7046 133.077 79.5757 131.843 77.451 133.069ZM89.563 124.599C89.7641 124.606 89.9699 124.771 90.1804 125.093L90.8875 126.125C91.1161 125.156 91.4591 124.342 91.9167 123.684C92.382 122.996 93.0119 122.423 93.8064 121.965C94.7301 121.432 95.6327 121.182 96.514 121.215C97.3846 121.229 98.2098 121.443 98.9896 121.855C99.7772 122.238 100.493 122.773 101.136 123.461C101.798 124.138 102.358 124.874 102.817 125.668C103.307 126.518 103.682 127.423 103.94 128.382C104.188 129.323 104.267 130.25 104.179 131.163C104.09 132.077 103.812 132.939 103.344 133.751C102.866 134.544 102.156 135.213 101.214 135.757C99.8467 136.546 98.3894 136.71 96.8421 136.248L97.706 137.745C98.0153 138.281 98.3513 138.863 98.7139 139.491C99.1057 140.127 99.4815 140.735 99.8412 141.316C100.087 141.741 100.434 141.873 100.883 141.712L101.965 141.346C102.414 141.185 102.74 141.28 102.943 141.632C103.145 141.983 103.016 142.291 102.554 142.558L96.9555 145.79C96.4936 146.056 96.1613 146.014 95.9587 145.663C95.756 145.312 95.8313 144.973 96.1844 144.646L96.7418 144.14C97.095 143.812 97.1542 143.446 96.9196 143.039C96.5968 142.437 96.2487 141.813 95.8754 141.166C95.5312 140.528 95.1992 139.931 94.8792 139.377L90.6076 131.977C90.3943 131.608 90.2023 131.275 90.0317 130.98C89.861 130.684 89.7024 130.431 89.556 130.22C89.4522 130.082 89.363 129.949 89.2883 129.82C89.2136 129.691 89.1336 129.552 89.0483 129.404C88.7661 129.001 88.4057 128.888 87.9672 129.068L87.2541 129.368C86.7972 129.558 86.4727 129.487 86.2807 129.154C86.0994 128.84 86.1508 128.503 86.435 128.142L88.9022 125.055C89.0258 124.885 89.1615 124.757 89.3093 124.672C89.3832 124.629 89.4678 124.605 89.563 124.599ZM91.6777 127.11L96.1413 134.842C97.4441 135.051 98.5112 134.915 99.3426 134.435C100.266 133.902 100.804 133.062 100.955 131.916C101.124 130.759 100.724 129.34 99.7534 127.658C98.7721 125.958 97.7644 124.853 96.7302 124.341C95.7037 123.801 94.7379 123.792 93.8326 124.314C93.0012 124.794 92.2829 125.726 91.6777 127.11ZM118.766 104.342C118.465 103.949 118.093 103.88 117.65 104.136L114.49 105.96C114.792 106.525 115.093 107.09 115.395 107.655C115.715 108.209 116.046 108.782 116.387 109.373L120.962 117.299C121.229 117.761 121.496 118.223 121.762 118.685C122.037 119.118 122.307 119.565 122.574 120.027C122.878 120.467 123.238 120.58 123.655 120.363L124.982 119.782C125.458 119.581 125.807 119.675 126.031 120.063C126.266 120.47 126.152 120.806 125.69 121.073L118.651 125.136C118.189 125.403 117.841 125.333 117.606 124.927C117.372 124.52 117.465 124.171 117.888 123.878L119.055 123.019C119.448 122.718 119.531 122.35 119.304 121.915C119.048 121.471 118.792 121.028 118.536 120.584C118.288 120.112 118.036 119.654 117.78 119.21L113.204 111.284C112.863 110.693 112.523 110.126 112.184 109.582C111.854 109.009 111.514 108.442 111.165 107.88L108.005 109.704C107.562 109.96 107.435 110.316 107.625 110.773L108.54 113.127C108.73 113.584 108.604 113.94 108.16 114.196L107.717 114.452C107.255 114.719 106.9 114.616 106.652 114.143L104.763 110.615C104.533 110.132 104.64 109.762 105.083 109.506L118.94 101.507C119.384 101.251 119.757 101.343 120.061 101.784L122.171 105.184C122.456 105.635 122.368 105.994 121.906 106.261L121.463 106.517C121.019 106.773 120.647 106.704 120.347 106.311L118.766 104.342ZM128.319 102.226C128.425 102.239 128.523 102.281 128.614 102.352C128.704 102.423 128.817 102.554 128.953 102.747L130.475 104.935C130.408 103.668 130.544 102.58 130.881 101.671C131.226 100.733 131.741 100.066 132.424 99.6716C132.794 99.4582 133.237 99.3505 133.753 99.3482C134.268 99.3459 134.737 99.5807 135.157 100.052C135.455 100.57 135.538 101.076 135.406 101.572C135.262 102.049 134.922 102.442 134.387 102.751C133.758 103.114 133.002 103.168 132.117 102.916L131.898 102.857C131.705 103.461 131.576 104.09 131.51 104.744C131.452 105.369 131.484 106.065 131.606 106.832L135.094 112.873C135.358 113.287 135.714 113.414 136.163 113.253L137.146 112.908C137.625 112.755 137.96 112.845 138.152 113.177C138.354 113.528 138.225 113.837 137.763 114.104L132.22 117.303C131.758 117.57 131.426 117.528 131.223 117.177C131.031 116.844 131.121 116.509 131.493 116.171L131.983 115.741C132.336 115.414 132.41 115.051 132.204 114.652L129.309 109.636C129.095 109.266 128.903 108.934 128.733 108.638C128.562 108.343 128.404 108.089 128.257 107.878C128.153 107.741 128.064 107.608 127.989 107.479C127.915 107.349 127.835 107.211 127.749 107.063C127.467 106.659 127.107 106.547 126.668 106.726L125.955 107.027C125.498 107.217 125.174 107.146 124.982 106.813C124.8 106.499 124.852 106.161 125.136 105.8L127.631 102.697C127.755 102.527 127.89 102.4 128.038 102.314C128.149 102.25 128.243 102.221 128.319 102.226ZM154.297 102.046C154.313 101.988 154.476 101.992 154.786 102.06C155.135 102.154 155.286 102.436 155.238 102.907C155.187 103.503 155.029 103.976 154.764 104.326C154.509 104.695 154.141 105.018 153.661 105.296C152.903 105.733 152.212 105.923 151.587 105.864C150.97 105.777 150.424 105.514 149.949 105.074C149.699 106.006 149.398 106.808 149.046 107.479C148.684 108.132 148.069 108.709 147.2 109.21C146.184 109.797 145.165 110.015 144.143 109.866C143.139 109.707 142.328 109.091 141.71 108.02C141.294 107.299 141.13 106.568 141.22 105.827C141.328 105.075 141.57 104.343 141.948 103.633C142.345 102.911 142.815 102.233 143.36 101.598C143.905 100.963 144.425 100.392 144.921 99.8845L146.094 98.6529L145.678 97.9323C144.974 96.7129 144.309 95.9882 143.684 95.7581C143.066 95.4988 142.323 95.6198 141.455 96.1211C141.362 96.1744 141.27 96.2278 141.178 96.2811C141.104 96.3238 141.026 96.381 140.944 96.4528C140.585 96.6846 140.482 97.0396 140.635 97.5179L141.042 98.7981C141.46 100.035 141.226 100.909 140.339 101.421C139.969 101.634 139.591 101.705 139.205 101.632C138.807 101.541 138.484 101.322 138.233 100.974C137.802 99.843 137.871 98.6824 138.44 97.4918C139.028 96.2906 140.097 95.242 141.649 94.3461C143.183 93.4608 144.514 93.185 145.643 93.5188C146.771 93.8525 147.874 94.9524 148.952 96.8185L152.167 102.389C152.647 103.22 153.146 103.487 153.663 103.188C153.885 103.06 154.051 102.878 154.161 102.642C154.237 102.475 154.277 102.353 154.282 102.276C154.277 102.181 154.282 102.104 154.297 102.046ZM149.214 104.057L146.734 99.7614C146.355 100.128 145.954 100.544 145.533 101.009C145.13 101.463 144.781 101.948 144.487 102.462C144.193 102.977 144.01 103.514 143.939 104.072C143.856 104.612 143.97 105.15 144.279 105.686C144.642 106.314 145.109 106.697 145.681 106.835C146.272 106.962 146.882 106.844 147.51 106.482C147.879 106.268 148.178 105.997 148.407 105.668C148.654 105.328 148.923 104.791 149.214 104.057ZM165.645 94.0543C165.688 93.6599 165.802 93.4093 165.987 93.3026C166.042 93.2706 166.118 93.2518 166.213 93.2461C166.586 93.2524 166.802 93.4975 166.859 93.9815C166.978 95.1691 166.748 96.2629 166.167 97.2631C165.605 98.2525 164.742 99.0832 163.578 99.7552C162.581 100.331 161.598 100.677 160.63 100.792C159.651 100.889 158.723 100.797 157.846 100.515C156.977 100.204 156.169 99.7216 155.423 99.0687C154.684 98.3866 154.037 97.5652 153.483 96.6044C152.939 95.6621 152.584 94.6847 152.418 93.6719C152.252 92.6592 152.28 91.6827 152.5 90.7423C152.711 89.7835 153.112 88.8993 153.703 88.0896C154.295 87.2799 155.081 86.5925 156.06 86.0272C156.614 85.7072 157.202 85.4665 157.823 85.305C158.463 85.1328 159.095 85.0758 159.72 85.1339C160.352 85.1629 160.959 85.3177 161.539 85.5982C162.109 85.8603 162.593 86.271 162.99 86.8302C163.298 87.6624 163.045 88.3131 162.232 88.7824C161.29 89.3264 160.414 89.0683 159.605 88.0081L158.803 87.067C158.537 86.7771 158.263 86.6645 157.98 86.7292C157.716 86.7833 157.445 86.8903 157.168 87.0503C156.484 87.445 155.998 87.9472 155.71 88.5571C155.411 89.1485 155.263 89.7882 155.266 90.4761C155.258 91.1456 155.362 91.8371 155.577 92.5506C155.799 93.235 156.076 93.8636 156.406 94.4363C157.409 96.173 158.54 97.2569 159.799 97.688C161.057 98.1191 162.278 97.9933 163.46 97.3107C164.717 96.5854 165.445 95.5 165.645 94.0543ZM181.359 86.4237C181.715 86.6127 182.071 86.6534 182.428 86.546L183.228 86.2686C183.688 86.1264 184.019 86.2307 184.222 86.5818C184.425 86.9328 184.295 87.2417 183.833 87.5083L180.757 89.2841C180.406 89.4868 180.038 89.4897 179.653 89.293L172.698 85.4378L172.082 87.8259C172.338 88.2694 172.604 88.7312 172.882 89.2116C173.178 89.6813 173.464 90.1564 173.741 90.6367C174.024 91.0403 174.38 91.1671 174.811 91.017L175.484 90.7759C175.963 90.623 176.298 90.7128 176.49 91.0454C176.692 91.3964 176.563 91.7052 176.101 91.9719L170.78 95.0436C170.318 95.3102 169.986 95.268 169.783 94.917C169.591 94.5844 169.681 94.2493 170.053 93.9116L170.598 93.4488C170.962 93.1403 171.021 92.7735 170.776 92.3486C170.453 91.7467 170.116 91.1409 169.764 90.5312C169.42 89.8923 169.093 89.305 168.784 88.7692L162.672 78.1826C162.427 77.7577 162.076 77.6401 161.619 77.83L160.723 78.1991C160.266 78.389 159.942 78.3177 159.75 77.9851C159.558 77.6525 159.624 77.3188 159.948 76.984L163.035 73.9459C163.106 73.8556 163.169 73.7945 163.224 73.7625C163.298 73.7198 163.372 73.6772 163.446 73.6345C163.575 73.5599 163.669 73.5303 163.727 73.546C163.881 73.5559 164.064 73.7456 164.278 74.1151L166.05 77.3779L171.138 86.1908L172.809 79.8686C172.895 79.548 172.862 79.3206 172.711 79.1863C172.567 79.0229 172.355 78.9973 172.075 79.1097L171.683 79.2623C171.226 79.4521 170.886 79.3531 170.662 78.9651C170.448 78.5956 170.573 78.2775 171.034 78.0109L175.746 75.2911C176.208 75.0245 176.545 75.0759 176.759 75.4454C176.983 75.8334 176.898 76.1778 176.505 76.4785L175.259 77.4564C174.996 77.6825 174.802 77.9665 174.679 78.3084L173.593 82.1871L181.359 86.4237Z" fill="white"/>
<defs>
<filter id="filter0_f_81_29" x="21.4844" y="18.4448" width="149.046" height="94.9565" filterUnits="userSpaceOnUse" color-interpolation-filters="sRGB">
<feFlood flood-opacity="0" result="BackgroundImageFix"/>
<feBlend mode="normal" in="SourceGraphic" in2="BackgroundImageFix" result="shape"/>
<feGaussianBlur stdDeviation="0.5" result="effect1_foregroundBlur_81_29"/>
</filter>
<filter id="filter1_f_81_29" x="47.5657" y="43.002" width="108.227" height="73.7661" filterUnits="userSpaceOnUse" color-interpolation-filters="sRGB">
<feFlood flood-opacity="0" result="BackgroundImageFix"/>
<feBlend mode="normal" in="SourceGraphic" in2="BackgroundImageFix" result="shape"/>
<feGaussianBlur stdDeviation="0.5" result="effect1_foregroundBlur_81_29"/>
</filter>
<filter id="filter2_f_81_29" x="72.3486" y="70.7896" width="72.6008" height="48.2046" filterUnits="userSpaceOnUse" color-interpolation-filters="sRGB">
<feFlood flood-opacity="0" result="BackgroundImageFix"/>
<feBlend mode="normal" in="SourceGraphic" in2="BackgroundImageFix" result="shape"/>
<feGaussianBlur stdDeviation="0.5" result="effect1_foregroundBlur_81_29"/>
</filter>
<filter id="filter3_f_81_29" x="58.4559" y="113.558" width="155.67" height="97.5669" filterUnits="userSpaceOnUse" color-interpolation-filters="sRGB">
<feFlood flood-opacity="0" result="BackgroundImageFix"/>
<feBlend mode="normal" in="SourceGraphic" in2="BackgroundImageFix" result="shape"/>
<feGaussianBlur stdDeviation="0.5" result="effect1_foregroundBlur_81_29"/>
</filter>
<filter id="filter4_f_81_29" x="78.5507" y="117.383" width="112.642" height="70.8081" filterUnits="userSpaceOnUse" color-interpolation-filters="sRGB">
<feFlood flood-opacity="0" result="BackgroundImageFix"/>
<feBlend mode="normal" in="SourceGraphic" in2="BackgroundImageFix" result="shape"/>
<feGaussianBlur stdDeviation="0.5" result="effect1_foregroundBlur_81_29"/>
</filter>
<filter id="filter5_f_81_29" x="92.4982" y="117.384" width="75.7615" height="47.8721" filterUnits="userSpaceOnUse" color-interpolation-filters="sRGB">
<feFlood flood-opacity="0" result="BackgroundImageFix"/>
<feBlend mode="normal" in="SourceGraphic" in2="BackgroundImageFix" result="shape"/>
<feGaussianBlur stdDeviation="0.5" result="effect1_foregroundBlur_81_29"/>
</filter>
<linearGradient id="paint0_linear_81_29" x1="9.63053" y1="230" x2="211.872" y2="230" gradientUnits="userSpaceOnUse">
<stop stop-color="#6F00FE"/>
<stop offset="0.193287" stop-color="#FE0066"/>
<stop offset="0.458912" stop-color="#FE8000"/>
<stop offset="0.708912" stop-color="#B1FD06"/>
<stop offset="1" stop-color="#00FEC8"/>
</linearGradient>
<linearGradient id="paint1_linear_81_29" x1="-7.26113" y1="148.256" x2="134.255" y2="238.877" gradientUnits="userSpaceOnUse">
<stop stop-color="#6F00FE"/>
<stop offset="0.193287" stop-color="#FE0066"/>
<stop offset="0.458912" stop-color="#FE8000"/>
<stop offset="0.708912" stop-color="#B1FD06"/>
<stop offset="1" stop-color="#00FEC8"/>
</linearGradient>
<linearGradient id="paint2_linear_81_29" x1="27.0802" y1="137.354" x2="128.972" y2="202.601" gradientUnits="userSpaceOnUse">
<stop stop-color="#6F00FE"/>
<stop offset="0.193287" stop-color="#FE0066"/>
<stop offset="0.458912" stop-color="#FE8000"/>
<stop offset="0.708912" stop-color="#B1FD06"/>
<stop offset="1" stop-color="#00FEC8"/>
</linearGradient>
<linearGradient id="paint3_linear_81_29" x1="59.0897" y1="133.619" x2="127.018" y2="177.117" gradientUnits="userSpaceOnUse">
<stop stop-color="#6F00FE"/>
<stop offset="0.193287" stop-color="#FE0066"/>
<stop offset="0.458912" stop-color="#FE8000"/>
<stop offset="0.708912" stop-color="#B1FD06"/>
<stop offset="1" stop-color="#00FEC8"/>
</linearGradient>
<linearGradient id="paint4_linear_81_29" x1="30.0295" y1="210.135" x2="198.075" y2="210.114" gradientUnits="userSpaceOnUse">
<stop stop-color="#6F00FE"/>
<stop offset="0.193287" stop-color="#FE0066"/>
<stop offset="0.458912" stop-color="#FE8000"/>
<stop offset="0.708912" stop-color="#B1FD06"/>
<stop offset="1" stop-color="#00FEC8"/>
</linearGradient>
<linearGradient id="paint5_linear_81_29" x1="58.3637" y1="187.199" x2="179.356" y2="187.184" gradientUnits="userSpaceOnUse">
<stop stop-color="#6F00FE"/>
<stop offset="0.193287" stop-color="#FE0066"/>
<stop offset="0.458912" stop-color="#FE8000"/>
<stop offset="0.708912" stop-color="#B1FD06"/>
<stop offset="1" stop-color="#00FEC8"/>
</linearGradient>
<linearGradient id="paint6_linear_81_29" x1="79.3735" y1="164.261" x2="160.035" y2="164.251" gradientUnits="userSpaceOnUse">
<stop stop-color="#6F00FE"/>
<stop offset="0.193287" stop-color="#FE0066"/>
<stop offset="0.458912" stop-color="#FE8000"/>
<stop offset="0.708912" stop-color="#B1FD06"/>
<stop offset="1" stop-color="#00FEC8"/>
</linearGradient>
</defs>
</svg>
