<svg width="26" height="27" viewBox="0 0 26 27" fill="none" xmlns="http://www.w3.org/2000/svg">
<path d="M10.9683 0.704326C11.5445 0.248421 12.2608 0 12.9991 0C13.7374 0 14.4536 0.248421 15.0299 0.704326L24.7799 8.40814C25.5506 9.0171 26 9.93973 26 10.9155V23.7901C26 24.6414 25.6576 25.4579 25.0481 26.0598C24.4386 26.6618 23.612 27 22.75 27H16.25C15.8806 27 15.5263 26.8551 15.2651 26.5971C15.0039 26.3391 14.8571 25.9892 14.8571 25.6243V15.9946H11.1429V25.6243C11.1429 25.9892 10.9961 26.3391 10.7349 26.5971C10.4737 26.8551 10.1194 27 9.75 27H3.25C2.38805 27 1.5614 26.6618 0.951903 26.0598C0.34241 25.4579 0 24.6414 0 23.7901V10.9137C0 9.93973 0.449428 9.0171 1.22014 8.40814L10.9683 0.704326ZM13.2897 2.85222C13.2074 2.78733 13.1053 2.75199 13 2.75199C12.8947 2.75199 12.7926 2.78733 12.7103 2.85222L2.96029 10.556C2.90566 10.5991 2.8616 10.6538 2.83137 10.7161C2.80114 10.7783 2.78553 10.8465 2.78571 10.9155V23.7901C2.78571 24.0432 2.99371 24.2486 3.25 24.2486H8.35714V14.6189C8.35714 14.254 8.50389 13.9041 8.7651 13.6461C9.02631 13.3881 9.38059 13.2432 9.75 13.2432H16.25C16.6194 13.2432 16.9737 13.3881 17.2349 13.6461C17.4961 13.9041 17.6429 14.254 17.6429 14.6189V24.2486H22.75C22.8731 24.2486 22.9912 24.2003 23.0783 24.1143C23.1654 24.0283 23.2143 23.9117 23.2143 23.7901V10.9137C23.2142 10.845 23.1984 10.7772 23.1682 10.7152C23.138 10.6533 23.0941 10.5989 23.0397 10.556L13.2897 2.85222Z" fill="#D1D1D1"/>
</svg>
