<svg width="39" height="41" viewBox="0 0 39 41" fill="none" xmlns="http://www.w3.org/2000/svg">
<path d="M16.4524 1.06953C17.3167 0.377232 18.3912 0 19.4986 0C20.6061 0 21.6805 0.377232 22.5448 1.06953L37.1698 12.7679C38.3259 13.6926 39 15.0937 39 16.5755V36.1257C39 37.4184 38.4864 38.6582 37.5721 39.5723C36.6579 40.4865 35.4179 41 34.125 41H24.375C23.8209 41 23.2895 40.7799 22.8977 40.3881C22.5058 39.9964 22.2857 39.465 22.2857 38.911V24.288H16.7143V38.911C16.7143 39.465 16.4942 39.9964 16.1023 40.3881C15.7105 40.7799 15.1791 41 14.625 41H4.875C3.58207 41 2.34209 40.4865 1.42785 39.5723C0.513615 38.6582 0 37.4184 0 36.1257V16.5727C0 15.0937 0.674143 13.6926 1.83021 12.7679L16.4524 1.06953ZM19.9346 4.33115C19.8112 4.23262 19.6579 4.17895 19.5 4.17895C19.3421 4.17895 19.1888 4.23262 19.0654 4.33115L4.44043 16.0295C4.3585 16.0949 4.29239 16.178 4.24705 16.2725C4.20171 16.3671 4.1783 16.4706 4.17857 16.5755V36.1257C4.17857 36.5101 4.49057 36.822 4.875 36.822H12.5357V22.199C12.5357 21.645 12.7558 21.1137 13.1477 20.7219C13.5395 20.3301 14.0709 20.11 14.625 20.11H24.375C24.9291 20.11 25.4605 20.3301 25.8523 20.7219C26.2442 21.1137 26.4643 21.645 26.4643 22.199V36.822H34.125C34.3097 36.822 34.4868 36.7486 34.6175 36.6181C34.7481 36.4875 34.8214 36.3104 34.8214 36.1257V16.5727C34.8213 16.4683 34.7977 16.3653 34.7523 16.2713C34.707 16.1773 34.6411 16.0947 34.5596 16.0295L19.9346 4.33115Z" fill="#F8F8F8"/>
</svg>
