<svg width="70" height="70" viewBox="0 0 70 70" fill="none" xmlns="http://www.w3.org/2000/svg">
<rect width="70" height="70" fill="#090011"/>
<g filter="url(#filter0_f_71_2)">
<mask id="path-1-inside-1_71_2" fill="white">
<path d="M48.6632 13.6632C44.8866 11.2449 40.5358 9.87219 36.0552 9.68542C31.5745 9.49865 27.1246 10.5045 23.1599 12.6002C19.1951 14.6958 15.8576 17.8063 13.4883 21.6138C11.119 25.4214 9.80269 29.7896 9.67387 34.2722L11.0225 34.311C11.1444 30.067 12.3906 25.9314 14.6338 22.3266C16.877 18.7219 20.0367 15.777 23.7903 13.7929C27.544 11.8089 31.7569 10.8566 35.999 11.0334C40.2411 11.2102 44.3602 12.5098 47.9356 14.7994L48.6632 13.6632Z"/>
</mask>
<path d="M48.6632 13.6632C44.8866 11.2449 40.5358 9.87219 36.0552 9.68542C31.5745 9.49865 27.1246 10.5045 23.1599 12.6002C19.1951 14.6958 15.8576 17.8063 13.4883 21.6138C11.119 25.4214 9.80269 29.7896 9.67387 34.2722L11.0225 34.311C11.1444 30.067 12.3906 25.9314 14.6338 22.3266C16.877 18.7219 20.0367 15.777 23.7903 13.7929C27.544 11.8089 31.7569 10.8566 35.999 11.0334C40.2411 11.2102 44.3602 12.5098 47.9356 14.7994L48.6632 13.6632Z" stroke="url(#paint0_linear_71_2)" stroke-width="10" mask="url(#path-1-inside-1_71_2)"/>
</g>
<g filter="url(#filter1_f_71_2)">
<mask id="path-2-inside-2_71_2" fill="white">
<path d="M44.7556 19.0407C41.9516 17.2451 38.7069 16.2556 35.3731 16.1793C32.0393 16.1031 28.7435 16.943 25.8429 18.608C22.9424 20.2731 20.5477 22.6998 18.9184 25.6251C17.289 28.5505 16.4872 31.8629 16.5998 35.2034L18.1726 35.142C18.0697 32.0892 18.8025 29.062 20.2915 26.3886C21.7805 23.7152 23.9689 21.4975 26.6197 19.9758C29.2704 18.4542 32.2824 17.6866 35.3291 17.7563C38.3758 17.826 41.341 18.7303 43.9035 20.3712L44.7556 19.0407Z"/>
</mask>
<path d="M44.7556 19.0407C41.9516 17.2451 38.7069 16.2556 35.3731 16.1793C32.0393 16.1031 28.7435 16.943 25.8429 18.608C22.9424 20.2731 20.5477 22.6998 18.9184 25.6251C17.289 28.5505 16.4872 31.8629 16.5998 35.2034L18.1726 35.142C18.0697 32.0892 18.8025 29.062 20.2915 26.3886C21.7805 23.7152 23.9689 21.4975 26.6197 19.9758C29.2704 18.4542 32.2824 17.6866 35.3291 17.7563C38.3758 17.826 41.341 18.7303 43.9035 20.3712L44.7556 19.0407Z" stroke="url(#paint1_linear_71_2)" stroke-width="10" mask="url(#path-2-inside-2_71_2)"/>
</g>
<g filter="url(#filter2_f_71_2)">
<mask id="path-3-inside-3_71_2" fill="white">
<path d="M41.8805 25.4626C40.0364 24.2817 37.9076 23.6207 35.719 23.5492C33.5303 23.4778 31.363 23.9986 29.4458 25.0567C27.5286 26.1148 25.9326 27.6709 24.8264 29.5608C23.7202 31.4507 23.1448 33.6042 23.1609 35.7939L24.5924 35.7834C24.5781 33.8514 25.0858 31.9513 26.0618 30.2839C27.0378 28.6165 28.4459 27.2435 30.1375 26.31C31.829 25.3764 33.7412 24.9169 35.6723 24.9799C37.6033 25.043 39.4815 25.6262 41.1086 26.6681L41.8805 25.4626Z"/>
</mask>
<path d="M41.8805 25.4626C40.0364 24.2817 37.9076 23.6207 35.719 23.5492C33.5303 23.4778 31.363 23.9986 29.4458 25.0567C27.5286 26.1148 25.9326 27.6709 24.8264 29.5608C23.7202 31.4507 23.1448 33.6042 23.1609 35.7939L24.5924 35.7834C24.5781 33.8514 25.0858 31.9513 26.0618 30.2839C27.0378 28.6165 28.4459 27.2435 30.1375 26.31C31.829 25.3764 33.7412 24.9169 35.6723 24.9799C37.6033 25.043 39.4815 25.6262 41.1086 26.6681L41.8805 25.4626Z" stroke="url(#paint2_linear_71_2)" stroke-width="10" mask="url(#path-3-inside-3_71_2)"/>
</g>
<g filter="url(#filter3_f_71_2)">
<mask id="path-4-inside-4_71_2" fill="white">
<path d="M60.2227 34.8826C60.2233 39.6103 58.9011 44.2438 56.4057 48.2592C53.9103 52.2747 50.3412 55.5118 46.102 57.6046C41.8627 59.6974 37.1225 60.5624 32.4174 60.1017C27.7122 59.641 23.2298 57.8731 19.477 54.9978L20.2675 53.966C23.8278 56.6937 28.0802 58.371 32.544 58.808C37.0078 59.245 41.5048 58.4244 45.5265 56.439C49.5483 54.4536 52.9343 51.3825 55.3017 47.5731C57.6691 43.7637 58.9234 39.3679 58.9229 34.8828L60.2227 34.8826Z"/>
</mask>
<path d="M60.2227 34.8826C60.2233 39.6103 58.9011 44.2438 56.4057 48.2592C53.9103 52.2747 50.3412 55.5118 46.102 57.6046C41.8627 59.6974 37.1225 60.5624 32.4174 60.1017C27.7122 59.641 23.2298 57.8731 19.477 54.9978L20.2675 53.966C23.8278 56.6937 28.0802 58.371 32.544 58.808C37.0078 59.245 41.5048 58.4244 45.5265 56.439C49.5483 54.4536 52.9343 51.3825 55.3017 47.5731C57.6691 43.7637 58.9234 39.3679 58.9229 34.8828L60.2227 34.8826Z" stroke="url(#paint3_linear_71_2)" stroke-width="10" mask="url(#path-4-inside-4_71_2)"/>
</g>
<g filter="url(#filter4_f_71_2)">
<mask id="path-5-inside-5_71_2" fill="white">
<path d="M54.1421 35.897C54.1425 39.301 53.1905 42.6371 51.3938 45.5282C49.5971 48.4193 47.0273 50.7501 43.9751 52.2569C40.9229 53.7637 37.5099 54.3865 34.1222 54.0548C30.7345 53.7231 27.5071 52.4502 24.8051 50.38L25.4398 49.5516C27.9872 51.5034 31.03 52.7035 34.2239 53.0162C37.4178 53.3289 40.6355 52.7418 43.5131 51.3211C46.3908 49.9005 48.8135 47.7031 50.5075 44.9774C52.2014 42.2517 53.0989 39.1064 53.0985 35.8972L54.1421 35.897Z"/>
</mask>
<path d="M54.1421 35.897C54.1425 39.301 53.1905 42.6371 51.3938 45.5282C49.5971 48.4193 47.0273 50.7501 43.9751 52.2569C40.9229 53.7637 37.5099 54.3865 34.1222 54.0548C30.7345 53.7231 27.5071 52.4502 24.8051 50.38L25.4398 49.5516C27.9872 51.5034 31.03 52.7035 34.2239 53.0162C37.4178 53.3289 40.6355 52.7418 43.5131 51.3211C46.3908 49.9005 48.8135 47.7031 50.5075 44.9774C52.2014 42.2517 53.0989 39.1064 53.0985 35.8972L54.1421 35.897Z" stroke="url(#paint4_linear_71_2)" stroke-width="10" mask="url(#path-5-inside-5_71_2)"/>
</g>
<g filter="url(#filter5_f_71_2)">
<mask id="path-6-inside-6_71_2" fill="white">
<path d="M48.0613 35.8973C48.0616 38.1666 47.4269 40.3907 46.2291 42.3181C45.0313 44.2455 43.3181 45.7994 41.2833 46.8039C39.2485 47.8084 36.9732 48.2236 34.7147 48.0025C32.4562 47.7814 30.3047 46.9328 28.5033 45.5526L29.4093 44.3702C30.99 45.5812 32.878 46.3259 34.8599 46.5199C36.8417 46.714 38.8383 46.3497 40.6239 45.4682C42.4095 44.5867 43.9128 43.2231 44.9639 41.5318C46.015 39.8405 46.5719 37.8888 46.5716 35.8975L48.0613 35.8973Z"/>
</mask>
<path d="M48.0613 35.8973C48.0616 38.1666 47.4269 40.3907 46.2291 42.3181C45.0313 44.2455 43.3181 45.7994 41.2833 46.8039C39.2485 47.8084 36.9732 48.2236 34.7147 48.0025C32.4562 47.7814 30.3047 46.9328 28.5033 45.5526L29.4093 44.3702C30.99 45.5812 32.878 46.3259 34.8599 46.5199C36.8417 46.714 38.8383 46.3497 40.6239 45.4682C42.4095 44.5867 43.9128 43.2231 44.9639 41.5318C46.015 39.8405 46.5719 37.8888 46.5716 35.8975L48.0613 35.8973Z" stroke="url(#paint5_linear_71_2)" stroke-width="10" mask="url(#path-6-inside-6_71_2)"/>
</g>
<path d="M22.3227 29.8374L22.3227 37.9451" stroke="white" stroke-width="3" stroke-linecap="round"/>
<path d="M28.8707 31.5581L28.8707 35.612" stroke="white" stroke-width="3" stroke-linecap="round"/>
<path d="M35.4187 28.1162L35.4187 40.2778" stroke="white" stroke-width="3" stroke-linecap="round"/>
<path d="M41.9667 29.8374L41.9667 37.9451" stroke="white" stroke-width="3" stroke-linecap="round"/>
<path d="M48.5052 33.7725L48.5052 35.4095" stroke="white" stroke-width="3" stroke-linecap="round"/>
<defs>
<filter id="filter0_f_71_2" x="8.67386" y="8.66357" width="40.9893" height="26.6475" filterUnits="userSpaceOnUse" color-interpolation-filters="sRGB">
<feFlood flood-opacity="0" result="BackgroundImageFix"/>
<feBlend mode="normal" in="SourceGraphic" in2="BackgroundImageFix" result="shape"/>
<feGaussianBlur stdDeviation="0.5" result="effect1_foregroundBlur_71_2"/>
</filter>
<filter id="filter1_f_71_2" x="15.5894" y="15.1743" width="30.1662" height="21.0293" filterUnits="userSpaceOnUse" color-interpolation-filters="sRGB">
<feFlood flood-opacity="0" result="BackgroundImageFix"/>
<feBlend mode="normal" in="SourceGraphic" in2="BackgroundImageFix" result="shape"/>
<feGaussianBlur stdDeviation="0.5" result="effect1_foregroundBlur_71_2"/>
</filter>
<filter id="filter2_f_71_2" x="22.1606" y="22.543" width="20.7199" height="14.251" filterUnits="userSpaceOnUse" color-interpolation-filters="sRGB">
<feFlood flood-opacity="0" result="BackgroundImageFix"/>
<feBlend mode="normal" in="SourceGraphic" in2="BackgroundImageFix" result="shape"/>
<feGaussianBlur stdDeviation="0.5" result="effect1_foregroundBlur_71_2"/>
</filter>
<filter id="filter3_f_71_2" x="18.477" y="33.8828" width="42.7458" height="27.3394" filterUnits="userSpaceOnUse" color-interpolation-filters="sRGB">
<feFlood flood-opacity="0" result="BackgroundImageFix"/>
<feBlend mode="normal" in="SourceGraphic" in2="BackgroundImageFix" result="shape"/>
<feGaussianBlur stdDeviation="0.5" result="effect1_foregroundBlur_71_2"/>
</filter>
<filter id="filter4_f_71_2" x="23.8051" y="34.897" width="31.3369" height="20.2446" filterUnits="userSpaceOnUse" color-interpolation-filters="sRGB">
<feFlood flood-opacity="0" result="BackgroundImageFix"/>
<feBlend mode="normal" in="SourceGraphic" in2="BackgroundImageFix" result="shape"/>
<feGaussianBlur stdDeviation="0.5" result="effect1_foregroundBlur_71_2"/>
</filter>
<filter id="filter5_f_71_2" x="27.5033" y="34.8975" width="21.558" height="14.1631" filterUnits="userSpaceOnUse" color-interpolation-filters="sRGB">
<feFlood flood-opacity="0" result="BackgroundImageFix"/>
<feBlend mode="normal" in="SourceGraphic" in2="BackgroundImageFix" result="shape"/>
<feGaussianBlur stdDeviation="0.5" result="effect1_foregroundBlur_71_2"/>
</filter>
<linearGradient id="paint0_linear_71_2" x1="1.78681" y1="43.8178" x2="39.3101" y2="67.8462" gradientUnits="userSpaceOnUse">
<stop stop-color="#6F00FE"/>
<stop offset="0.193287" stop-color="#FE0066"/>
<stop offset="0.458912" stop-color="#FE8000"/>
<stop offset="0.708912" stop-color="#B1FD06"/>
<stop offset="1" stop-color="#00FEC8"/>
</linearGradient>
<linearGradient id="paint1_linear_71_2" x1="10.8925" y1="40.9269" x2="37.9093" y2="58.2274" gradientUnits="userSpaceOnUse">
<stop stop-color="#6F00FE"/>
<stop offset="0.193287" stop-color="#FE0066"/>
<stop offset="0.458912" stop-color="#FE8000"/>
<stop offset="0.708912" stop-color="#B1FD06"/>
<stop offset="1" stop-color="#00FEC8"/>
</linearGradient>
<linearGradient id="paint2_linear_71_2" x1="19.3798" y1="39.9368" x2="37.391" y2="51.4705" gradientUnits="userSpaceOnUse">
<stop stop-color="#6F00FE"/>
<stop offset="0.193287" stop-color="#FE0066"/>
<stop offset="0.458912" stop-color="#FE8000"/>
<stop offset="0.708912" stop-color="#B1FD06"/>
<stop offset="1" stop-color="#00FEC8"/>
</linearGradient>
<linearGradient id="paint3_linear_71_2" x1="11.6745" y1="60.2251" x2="56.2319" y2="60.2197" gradientUnits="userSpaceOnUse">
<stop stop-color="#6F00FE"/>
<stop offset="0.193287" stop-color="#FE0066"/>
<stop offset="0.458912" stop-color="#FE8000"/>
<stop offset="0.708912" stop-color="#B1FD06"/>
<stop offset="1" stop-color="#00FEC8"/>
</linearGradient>
<linearGradient id="paint4_linear_71_2" x1="19.1873" y1="54.1437" x2="51.2687" y2="54.1397" gradientUnits="userSpaceOnUse">
<stop stop-color="#6F00FE"/>
<stop offset="0.193287" stop-color="#FE0066"/>
<stop offset="0.458912" stop-color="#FE8000"/>
<stop offset="0.708912" stop-color="#B1FD06"/>
<stop offset="1" stop-color="#00FEC8"/>
</linearGradient>
<linearGradient id="paint5_linear_71_2" x1="24.7581" y1="48.0617" x2="46.1457" y2="48.0591" gradientUnits="userSpaceOnUse">
<stop stop-color="#6F00FE"/>
<stop offset="0.193287" stop-color="#FE0066"/>
<stop offset="0.458912" stop-color="#FE8000"/>
<stop offset="0.708912" stop-color="#B1FD06"/>
<stop offset="1" stop-color="#00FEC8"/>
</linearGradient>
</defs>
</svg>
