<svg width="172" height="172" viewBox="0 0 172 172" fill="none" xmlns="http://www.w3.org/2000/svg">
<g filter="url(#filter0_f_19_134)">
<mask id="path-1-inside-1_19_134" fill="white">
<path d="M119.386 33.8636C110.158 27.9543 99.5269 24.6002 88.5784 24.1438C77.63 23.6874 66.7565 26.1452 57.0687 31.266C47.3809 36.3868 39.2258 43.9872 33.4363 53.2909C27.6469 62.5946 24.4305 73.2682 24.1158 84.2217L27.4111 84.3163C27.7091 73.9462 30.7542 63.8409 36.2353 55.0326C41.7165 46.2243 49.4374 39.0287 58.6093 34.1806C67.7813 29.3324 78.0757 27.0056 88.4411 27.4377C98.8066 27.8697 108.872 31.0452 117.608 36.6399L119.386 33.8636Z"/>
</mask>
<path d="M119.386 33.8636C110.158 27.9543 99.5269 24.6002 88.5784 24.1438C77.63 23.6874 66.7565 26.1452 57.0687 31.266C47.3809 36.3868 39.2258 43.9872 33.4363 53.2909C27.6469 62.5946 24.4305 73.2682 24.1158 84.2217L27.4111 84.3163C27.7091 73.9462 30.7542 63.8409 36.2353 55.0326C41.7165 46.2243 49.4374 39.0287 58.6093 34.1806C67.7813 29.3324 78.0757 27.0056 88.4411 27.4377C98.8066 27.8697 108.872 31.0452 117.608 36.6399L119.386 33.8636Z" stroke="url(#paint0_linear_19_134)" stroke-width="10" mask="url(#path-1-inside-1_19_134)"/>
</g>
<g filter="url(#filter1_f_19_134)">
<mask id="path-2-inside-2_19_134" fill="white">
<path d="M109.838 47.0038C102.986 42.6164 95.0578 40.1985 86.9116 40.0121C78.7655 39.8258 70.7123 41.8781 63.6248 45.9466C56.5373 50.0152 50.6859 55.9448 46.7046 63.0929C42.7234 70.241 40.7641 78.3349 41.0393 86.4974L44.8823 86.3474C44.6309 78.8878 46.4214 71.491 50.0598 64.9585C53.6981 58.426 59.0457 53.0071 65.5228 49.2889C71.9998 45.5708 79.3595 43.6952 86.8041 43.8655C94.2487 44.0358 101.494 46.2455 107.756 50.255L109.838 47.0038Z"/>
</mask>
<path d="M109.838 47.0038C102.986 42.6164 95.0578 40.1985 86.9116 40.0121C78.7655 39.8258 70.7123 41.8781 63.6248 45.9466C56.5373 50.0152 50.6859 55.9448 46.7046 63.0929C42.7234 70.241 40.7641 78.3349 41.0393 86.4974L44.8823 86.3474C44.6309 78.8878 46.4214 71.491 50.0598 64.9585C53.6981 58.426 59.0457 53.0071 65.5228 49.2889C71.9998 45.5708 79.3595 43.6952 86.8041 43.8655C94.2487 44.0358 101.494 46.2455 107.756 50.255L109.838 47.0038Z" stroke="url(#paint1_linear_19_134)" stroke-width="10" mask="url(#path-2-inside-2_19_134)"/>
</g>
<g filter="url(#filter2_f_19_134)">
<mask id="path-3-inside-3_19_134" fill="white">
<path d="M102.812 62.6952C98.3064 59.8097 93.1048 58.1944 87.7568 58.0198C82.4089 57.8452 77.113 59.1178 72.4283 61.7033C67.7436 64.2888 63.8439 68.0912 61.1409 72.7091C58.4379 77.3269 57.0319 82.589 57.0713 87.9397L60.569 87.9139C60.5342 83.193 61.7747 78.5503 64.1596 74.476C66.5444 70.4017 69.9851 67.0468 74.1184 64.7657C78.2517 62.4845 82.9242 61.3617 87.6427 61.5157C92.3612 61.6698 96.9505 63.095 100.926 65.6409L102.812 62.6952Z"/>
</mask>
<path d="M102.812 62.6952C98.3064 59.8097 93.1048 58.1944 87.7568 58.0198C82.4089 57.8452 77.113 59.1178 72.4283 61.7033C67.7436 64.2888 63.8439 68.0912 61.1409 72.7091C58.4379 77.3269 57.0319 82.589 57.0713 87.9397L60.569 87.9139C60.5342 83.193 61.7747 78.5503 64.1596 74.476C66.5444 70.4017 69.9851 67.0468 74.1184 64.7657C78.2517 62.4845 82.9242 61.3617 87.6427 61.5157C92.3612 61.6698 96.9505 63.095 100.926 65.6409L102.812 62.6952Z" stroke="url(#paint2_linear_19_134)" stroke-width="10" mask="url(#path-3-inside-3_19_134)"/>
</g>
<g filter="url(#filter3_f_19_134)">
<mask id="path-4-inside-4_19_134" fill="white">
<path d="M147.632 85.713C147.633 97.265 144.402 108.587 138.305 118.399C132.207 128.21 123.486 136.12 113.128 141.234C102.769 146.348 91.1864 148.461 79.6893 147.336C68.1922 146.21 57.2395 141.89 48.0695 134.864L50.0012 132.343C58.7007 139.008 69.0916 143.107 79.9988 144.175C90.906 145.243 101.894 143.237 111.722 138.386C121.549 133.535 129.822 126.03 135.607 116.722C141.392 107.414 144.457 96.6727 144.455 85.7134L147.632 85.713Z"/>
</mask>
<path d="M147.632 85.713C147.633 97.265 144.402 108.587 138.305 118.399C132.207 128.21 123.486 136.12 113.128 141.234C102.769 146.348 91.1864 148.461 79.6893 147.336C68.1922 146.21 57.2395 141.89 48.0695 134.864L50.0012 132.343C58.7007 139.008 69.0916 143.107 79.9988 144.175C90.906 145.243 101.894 143.237 111.722 138.386C121.549 133.535 129.822 126.03 135.607 116.722C141.392 107.414 144.457 96.6727 144.455 85.7134L147.632 85.713Z" stroke="url(#paint3_linear_19_134)" stroke-width="10" mask="url(#path-4-inside-4_19_134)"/>
</g>
<g filter="url(#filter4_f_19_134)">
<mask id="path-5-inside-5_19_134" fill="white">
<path d="M132.774 88.1916C132.775 96.509 130.448 104.661 126.058 111.725C121.668 118.79 115.389 124.485 107.931 128.167C100.473 131.849 92.133 133.37 83.8551 132.56C75.5772 131.75 67.6912 128.639 61.0888 123.581L62.6396 121.557C68.8643 126.326 76.2992 129.258 84.1036 130.022C91.9079 130.786 99.7704 129.352 106.802 125.88C113.833 122.409 119.753 117.04 123.892 110.379C128.032 103.719 130.225 96.0336 130.224 88.1919L132.774 88.1916Z"/>
</mask>
<path d="M132.774 88.1916C132.775 96.509 130.448 104.661 126.058 111.725C121.668 118.79 115.389 124.485 107.931 128.167C100.473 131.849 92.133 133.37 83.8551 132.56C75.5772 131.75 67.6912 128.639 61.0888 123.581L62.6396 121.557C68.8643 126.326 76.2992 129.258 84.1036 130.022C91.9079 130.786 99.7704 129.352 106.802 125.88C113.833 122.409 119.753 117.04 123.892 110.379C128.032 103.719 130.225 96.0336 130.224 88.1919L132.774 88.1916Z" stroke="url(#paint4_linear_19_134)" stroke-width="10" mask="url(#path-5-inside-5_19_134)"/>
</g>
<g filter="url(#filter5_f_19_134)">
<mask id="path-6-inside-6_19_134" fill="white">
<path d="M117.915 88.1923C117.916 93.7373 116.365 99.1719 113.438 103.881C110.512 108.591 106.325 112.388 101.353 114.842C96.3812 117.297 90.8215 118.312 85.3029 117.771C79.7843 117.231 74.527 115.157 70.1254 111.785L72.3391 108.896C76.2016 111.855 80.815 113.675 85.6576 114.149C90.5002 114.623 95.3789 113.733 99.742 111.579C104.105 109.425 107.778 106.093 110.347 101.96C112.915 97.8274 114.276 93.0586 114.275 88.1928L117.915 88.1923Z"/>
</mask>
<path d="M117.915 88.1923C117.916 93.7373 116.365 99.1719 113.438 103.881C110.512 108.591 106.325 112.388 101.353 114.842C96.3812 117.297 90.8215 118.312 85.3029 117.771C79.7843 117.231 74.527 115.157 70.1254 111.785L72.3391 108.896C76.2016 111.855 80.815 113.675 85.6576 114.149C90.5002 114.623 95.3789 113.733 99.742 111.579C104.105 109.425 107.778 106.093 110.347 101.96C112.915 97.8274 114.276 93.0586 114.275 88.1928L117.915 88.1923Z" stroke="url(#paint5_linear_19_134)" stroke-width="10" mask="url(#path-6-inside-6_19_134)"/>
</g>
<path d="M55.0231 73.3848L55.0231 93.1959" stroke="white" stroke-width="6" stroke-linecap="round"/>
<path d="M71.0231 77.5898L71.0231 87.4954" stroke="white" stroke-width="6" stroke-linecap="round"/>
<path d="M87.0231 69.1797L87.0231 98.8964" stroke="white" stroke-width="6" stroke-linecap="round"/>
<path d="M103.023 73.3848L103.023 93.1959" stroke="white" stroke-width="6" stroke-linecap="round"/>
<path d="M119 83L119 87" stroke="white" stroke-width="6" stroke-linecap="round"/>
<defs>
<filter id="filter0_f_19_134" x="23.1158" y="23.0903" width="97.2703" height="62.2261" filterUnits="userSpaceOnUse" color-interpolation-filters="sRGB">
<feFlood flood-opacity="0" result="BackgroundImageFix"/>
<feBlend mode="normal" in="SourceGraphic" in2="BackgroundImageFix" result="shape"/>
<feGaussianBlur stdDeviation="0.5" result="effect1_foregroundBlur_19_134"/>
</filter>
<filter id="filter1_f_19_134" x="40.0138" y="39.0005" width="70.8239" height="48.4971" filterUnits="userSpaceOnUse" color-interpolation-filters="sRGB">
<feFlood flood-opacity="0" result="BackgroundImageFix"/>
<feBlend mode="normal" in="SourceGraphic" in2="BackgroundImageFix" result="shape"/>
<feGaussianBlur stdDeviation="0.5" result="effect1_foregroundBlur_19_134"/>
</filter>
<filter id="filter2_f_19_134" x="56.0705" y="57.0039" width="47.742" height="31.9355" filterUnits="userSpaceOnUse" color-interpolation-filters="sRGB">
<feFlood flood-opacity="0" result="BackgroundImageFix"/>
<feBlend mode="normal" in="SourceGraphic" in2="BackgroundImageFix" result="shape"/>
<feGaussianBlur stdDeviation="0.5" result="effect1_foregroundBlur_19_134"/>
</filter>
<filter id="filter3_f_19_134" x="47.0695" y="84.7129" width="101.562" height="63.9175" filterUnits="userSpaceOnUse" color-interpolation-filters="sRGB">
<feFlood flood-opacity="0" result="BackgroundImageFix"/>
<feBlend mode="normal" in="SourceGraphic" in2="BackgroundImageFix" result="shape"/>
<feGaussianBlur stdDeviation="0.5" result="effect1_foregroundBlur_19_134"/>
</filter>
<filter id="filter4_f_19_134" x="60.0888" y="87.1914" width="73.6848" height="46.5806" filterUnits="userSpaceOnUse" color-interpolation-filters="sRGB">
<feFlood flood-opacity="0" result="BackgroundImageFix"/>
<feBlend mode="normal" in="SourceGraphic" in2="BackgroundImageFix" result="shape"/>
<feGaussianBlur stdDeviation="0.5" result="effect1_foregroundBlur_19_134"/>
</filter>
<filter id="filter5_f_19_134" x="69.1254" y="87.1924" width="49.7899" height="31.7202" filterUnits="userSpaceOnUse" color-interpolation-filters="sRGB">
<feFlood flood-opacity="0" result="BackgroundImageFix"/>
<feBlend mode="normal" in="SourceGraphic" in2="BackgroundImageFix" result="shape"/>
<feGaussianBlur stdDeviation="0.5" result="effect1_foregroundBlur_19_134"/>
</filter>
<linearGradient id="paint0_linear_19_134" x1="4.84373" y1="107.546" x2="96.5317" y2="166.259" gradientUnits="userSpaceOnUse">
<stop stop-color="#6F00FE"/>
<stop offset="0.193287" stop-color="#FE0066"/>
<stop offset="0.458912" stop-color="#FE8000"/>
<stop offset="0.708912" stop-color="#B1FD06"/>
<stop offset="1" stop-color="#00FEC8"/>
</linearGradient>
<linearGradient id="paint1_linear_19_134" x1="27.0934" y1="100.483" x2="93.1088" y2="142.756" gradientUnits="userSpaceOnUse">
<stop stop-color="#6F00FE"/>
<stop offset="0.193287" stop-color="#FE0066"/>
<stop offset="0.458912" stop-color="#FE8000"/>
<stop offset="0.708912" stop-color="#B1FD06"/>
<stop offset="1" stop-color="#00FEC8"/>
</linearGradient>
<linearGradient id="paint2_linear_19_134" x1="47.8322" y1="98.0628" x2="91.8424" y2="126.245" gradientUnits="userSpaceOnUse">
<stop stop-color="#6F00FE"/>
<stop offset="0.193287" stop-color="#FE0066"/>
<stop offset="0.458912" stop-color="#FE8000"/>
<stop offset="0.708912" stop-color="#B1FD06"/>
<stop offset="1" stop-color="#00FEC8"/>
</linearGradient>
<linearGradient id="paint3_linear_19_134" x1="29.0042" y1="147.637" x2="137.88" y2="147.624" gradientUnits="userSpaceOnUse">
<stop stop-color="#6F00FE"/>
<stop offset="0.193287" stop-color="#FE0066"/>
<stop offset="0.458912" stop-color="#FE8000"/>
<stop offset="0.708912" stop-color="#B1FD06"/>
<stop offset="1" stop-color="#00FEC8"/>
</linearGradient>
<linearGradient id="paint4_linear_19_134" x1="47.3618" y1="132.777" x2="125.752" y2="132.768" gradientUnits="userSpaceOnUse">
<stop stop-color="#6F00FE"/>
<stop offset="0.193287" stop-color="#FE0066"/>
<stop offset="0.458912" stop-color="#FE8000"/>
<stop offset="0.708912" stop-color="#B1FD06"/>
<stop offset="1" stop-color="#00FEC8"/>
</linearGradient>
<linearGradient id="paint5_linear_19_134" x1="60.9741" y1="117.916" x2="113.234" y2="117.91" gradientUnits="userSpaceOnUse">
<stop stop-color="#6F00FE"/>
<stop offset="0.193287" stop-color="#FE0066"/>
<stop offset="0.458912" stop-color="#FE8000"/>
<stop offset="0.708912" stop-color="#B1FD06"/>
<stop offset="1" stop-color="#00FEC8"/>
</linearGradient>
</defs>
</svg>
