<svg width="40" height="40" viewBox="0 0 40 40" fill="none" xmlns="http://www.w3.org/2000/svg">
<g clip-path="url(#clip0_95_6)">
<path d="M9.87226 10.4219C10.017 10.1758 10.2052 9.93939 10.4754 9.82359C10.5864 9.80429 10.6974 9.81394 10.8083 9.81394H16.2703C16.1111 9.94904 15.9567 10.089 15.8506 10.2723C15.5707 10.7307 15.3825 11.2422 15.2088 11.7536C14.7167 13.2977 14.3741 14.8851 14.0411 16.4726C13.8916 17.1915 13.7468 17.9153 13.6117 18.6342C13.1968 20.9888 12.7673 23.3387 12.2317 25.6692C11.976 26.7452 11.7154 27.8212 11.3198 28.8586C11.1364 29.288 10.9579 29.7464 10.6057 30.0648C10.5237 30.1372 10.4416 30.2289 10.3258 30.2144H5.50073C5.17263 30.2048 4.84935 30.2337 4.52124 30.1999C4.73837 30.0311 4.93137 29.8284 5.05683 29.5872C5.41871 28.8972 5.64549 28.1493 5.86262 27.4062C6.20037 26.2096 6.47058 24.9985 6.72631 23.7874C6.88553 22.9913 7.07371 22.1999 7.18951 21.399C7.31979 20.5063 7.51762 19.6233 7.67685 18.7355C7.92775 17.4279 8.19313 16.1203 8.48746 14.8224C8.72389 13.8091 8.96515 12.8007 9.28843 11.8115C9.44766 11.3338 9.62136 10.861 9.87226 10.4219Z" fill="#EB7077" stroke="#EB7077" stroke-width="0.292969"/>
<path d="M16.2702 9.81416C16.4101 9.81416 16.5501 9.80933 16.69 9.81416C16.9988 9.97821 17.2593 10.2388 17.4041 10.562C17.5971 10.9288 17.7563 11.3148 17.9011 11.7104C18.3836 13.2014 18.7117 14.7357 19.0398 16.2653C19.3197 17.6356 19.585 19.0108 19.8359 20.3908C19.8552 20.4631 19.8311 20.5645 19.9276 20.5838C19.5802 22.398 19.2376 24.2171 18.8034 26.0168C18.5669 26.9867 18.316 27.9517 17.959 28.8877C17.766 29.3558 17.5681 29.8672 17.158 30.2002C16.8975 30.2581 16.7093 30.0602 16.5501 29.8817C16.275 29.5295 16.1061 29.1145 15.9421 28.6996C15.3969 27.2134 15.0639 25.6646 14.7262 24.1205C14.4704 22.9191 14.2437 21.708 14.0072 20.5017C13.9011 19.8889 13.7563 19.2858 13.6743 18.673C13.6598 18.6634 13.626 18.6441 13.6116 18.6344C13.7467 17.9155 13.8914 17.1917 14.041 16.4728C14.3739 14.8853 14.7165 13.2979 15.2087 11.7538C15.3824 11.2424 15.5706 10.7309 15.8504 10.2725C15.9566 10.0892 16.111 9.94926 16.2702 9.81416Z" fill="#F6A2AD" stroke="#F6A2AD" stroke-width="0.292969"/>
<path d="M22.3063 10.6484C22.48 10.3155 22.6923 9.94398 23.0687 9.81853C24.9843 9.80888 26.8998 9.81371 28.8154 9.81371C28.6368 9.99223 28.4487 10.1708 28.328 10.3975C27.9565 11.0634 27.7394 11.8016 27.5174 12.5302C26.9481 14.5375 26.5476 16.5881 26.1664 18.6388C25.8142 20.6605 25.4378 22.6822 25.0084 24.6943C24.7864 25.7076 24.5548 26.716 24.2605 27.7148C24.0723 28.3324 23.8745 28.9548 23.5657 29.529C23.4161 29.7896 23.2424 30.0743 22.9577 30.2094C21.129 30.2238 19.2955 30.2094 17.4668 30.2142C17.3654 30.2142 17.2593 30.2142 17.158 30.1997C17.5681 29.8668 17.7659 29.3553 17.9589 28.8873C18.316 27.9512 18.5669 26.9862 18.8033 26.0164C19.2376 24.2166 19.5802 22.3975 19.9276 20.5833C20.3473 18.2431 20.7864 15.903 21.3461 13.5918C21.6067 12.593 21.8576 11.5797 22.3063 10.6484Z" fill="#EB7077" stroke="#EB7077" stroke-width="0.292969"/>
<path d="M28.8155 9.81416C28.9699 9.81416 29.1291 9.80933 29.2835 9.81416C29.5344 9.94443 29.7129 10.1664 29.8722 10.3932C30.1327 10.8081 30.2968 11.2762 30.4657 11.7345C30.8661 12.9649 31.1653 14.2291 31.4403 15.4933C31.807 17.1965 32.1255 18.9095 32.4391 20.6224C32.5163 21.0325 32.5935 21.4474 32.6418 21.8624C32.6611 21.8817 32.6997 21.9203 32.7142 21.9348C32.5404 22.176 32.4729 22.4655 32.3764 22.7406C32.0724 23.7201 31.8746 24.7333 31.7057 25.7418C31.5754 26.5331 31.3969 27.3196 31.1508 28.0819C30.9675 28.6465 30.7455 29.2062 30.3788 29.6791C30.2051 29.9058 29.9687 30.0795 29.7081 30.1953C29.3076 30.2388 29.0712 29.8528 28.8782 29.5681C28.4777 28.8684 28.2606 28.0868 28.029 27.3244C27.2666 24.5017 26.7696 21.6115 26.2341 18.7406C26.2292 18.6971 26.2051 18.6585 26.1665 18.6392C26.5477 16.5886 26.9482 14.5379 27.5175 12.5307C27.7395 11.8021 27.9566 11.0639 28.3281 10.398C28.4488 10.1712 28.637 9.99268 28.8155 9.81416Z" fill="#F6A2AD" stroke="#F6A2AD" stroke-width="0.292969"/>
<path d="M0.00488281 20.7912C0.130335 20.7815 0.255788 20.7622 0.386065 20.7622H5.64541C5.86737 20.7912 6.09897 20.7719 6.31128 20.8684C6.62008 20.9938 6.89511 21.2061 7.09777 21.4715C7.12189 21.457 7.16532 21.4184 7.18944 21.3991C7.07364 22.2001 6.88546 22.9914 6.72623 23.7875C6.4705 24.9986 6.2003 26.2097 5.86254 27.4064C5.64541 28.1494 5.41863 28.8973 5.05675 29.5873C4.9313 29.8286 4.7383 30.0312 4.52117 30.2001C4.43914 30.2146 4.37641 30.1567 4.30886 30.1132C4.08208 29.9685 3.95181 29.7176 3.81188 29.4908C3.15084 27.9854 3.07847 26.3207 2.66833 24.7477C2.46085 23.9612 2.20512 23.1796 1.82877 22.4558C1.59716 22.0216 1.31248 21.6066 0.94095 21.2737C0.66592 21.0517 0.347464 20.8732 0.00488281 20.7912Z" fill="#F6A2AD" stroke="#F6A2AD" stroke-width="0.292969"/>
<path d="M33.1389 21.2928C33.4429 20.9503 33.8964 20.7331 34.3548 20.7524H38.3114C38.8614 20.7621 39.4163 20.7331 39.9664 20.7669C39.8023 20.8779 39.6045 20.9213 39.4308 21.013C38.8277 21.288 38.3114 21.7464 37.9833 22.3206C37.4573 23.2374 37.274 24.2892 37.1196 25.3218C36.9652 26.3351 36.97 27.3821 36.6419 28.3664C36.42 29.0564 36.0822 29.7512 35.4984 30.2048C33.6841 30.2241 31.8699 30.2096 30.0605 30.2144C29.9399 30.2144 29.8241 30.2193 29.7083 30.1951C29.9688 30.0793 30.2052 29.9056 30.3789 29.6789C30.7456 29.206 30.9676 28.6463 31.151 28.0817C31.397 27.3194 31.5756 26.5329 31.7058 25.7416C31.8747 24.7331 32.0725 23.7199 32.3765 22.7404C32.473 22.4653 32.5406 22.1758 32.7143 21.9346C32.859 21.7223 32.9555 21.4762 33.1389 21.2928Z" fill="#EB7077" stroke="#EB7077" stroke-width="0.292969"/>
</g>
<defs>
<clipPath id="clip0_95_6">
<rect width="40" height="40" fill="white"/>
</clipPath>
</defs>
</svg>
