<svg width="43" height="34" viewBox="0 0 43 34" fill="none" xmlns="http://www.w3.org/2000/svg">
<path d="M36.9473 3.76734C37.5481 3.54472 38.2657 3.35669 39.0437 3.49717C39.999 3.67008 40.8506 4.20824 41.4212 4.99279C41.8858 5.63253 42.0263 6.36305 42.0868 7.00279C42.1452 7.62308 42.1452 8.39898 42.1452 9.28295V9.52069C42.1452 10.1691 42.1495 10.8607 41.9161 11.4983C41.7324 12.0021 41.4436 12.4611 41.0689 12.8448C40.5934 13.331 39.9688 13.6293 39.3831 13.9081L39.2361 13.9794L35.3782 15.8317C34.5807 16.2142 33.8826 16.5492 33.2947 16.7653C32.7306 16.975 32.0628 17.1544 31.3387 17.0593V26.3226C31.3387 30.2431 28.2373 33.5002 24.3145 33.5002C20.3918 33.5002 17.2903 30.2431 17.2903 26.3226C17.2903 22.3998 20.3918 19.1428 24.3145 19.1428C25.6585 19.1409 26.9735 19.5332 28.0968 20.2709V12.4276H28.1033C28.0968 12.0624 28.0968 11.669 28.0968 11.2497V11.012C28.0968 10.3636 28.0925 9.67198 28.3259 9.0344C28.5096 8.53059 28.7984 8.07161 29.1731 7.68792C29.6486 7.20163 30.2732 6.90337 30.8589 6.62456L31.0059 6.55324L34.8638 4.70101C35.6613 4.31847 36.3594 3.98347 36.9473 3.76734Z" fill="#F8F8F8"/>
<path fill-rule="evenodd" clip-rule="evenodd" d="M0 1.62097C0 1.19106 0.17078 0.778761 0.47477 0.47477C0.778761 0.17078 1.19106 0 1.62097 0H27.5565C27.9864 0 28.3987 0.17078 28.7026 0.47477C29.0066 0.778761 29.1774 1.19106 29.1774 1.62097C29.1774 2.05088 29.0066 2.46317 28.7026 2.76717C28.3987 3.07116 27.9864 3.24194 27.5565 3.24194H1.62097C1.19106 3.24194 0.778761 3.07116 0.47477 2.76717C0.17078 2.46317 0 2.05088 0 1.62097ZM0 10.2661C0 9.83622 0.17078 9.42392 0.47477 9.11993C0.778761 8.81594 1.19106 8.64516 1.62097 8.64516H23.2339C23.6638 8.64516 24.0761 8.81594 24.3801 9.11993C24.6841 9.42392 24.8548 9.83622 24.8548 10.2661C24.8548 10.696 24.6841 11.1083 24.3801 11.4123C24.0761 11.7163 23.6638 11.8871 23.2339 11.8871H1.62097C1.19106 11.8871 0.778761 11.7163 0.47477 11.4123C0.17078 11.1083 0 10.696 0 10.2661ZM0 18.9113C0 18.4814 0.17078 18.0691 0.47477 17.7651C0.778761 17.4611 1.19106 17.2903 1.62097 17.2903H14.5887C15.0186 17.2903 15.4309 17.4611 15.7349 17.7651C16.0389 18.0691 16.2097 18.4814 16.2097 18.9113C16.2097 19.3412 16.0389 19.7535 15.7349 20.0575C15.4309 20.3615 15.0186 20.5323 14.5887 20.5323H1.62097C1.19106 20.5323 0.778761 20.3615 0.47477 20.0575C0.17078 19.7535 0 19.3412 0 18.9113ZM0 27.5565C0 27.1265 0.17078 26.7142 0.47477 26.4103C0.778761 26.1063 1.19106 25.9355 1.62097 25.9355H12.4274C12.8573 25.9355 13.2696 26.1063 13.5736 26.4103C13.8776 26.7142 14.0484 27.1265 14.0484 27.5565C14.0484 27.9864 13.8776 28.3987 13.5736 28.7027C13.2696 29.0066 12.8573 29.1774 12.4274 29.1774H1.62097C1.19106 29.1774 0.778761 29.0066 0.47477 28.7027C0.17078 28.3987 0 27.9864 0 27.5565Z" fill="#F8F8F8"/>
</svg>
