<svg width="37" height="40" viewBox="0 0 37 40" fill="none" xmlns="http://www.w3.org/2000/svg">
<path d="M34.1222 40L21.1722 26C20.1444 26.8889 18.9625 27.5926 17.6264 28.1111C16.2903 28.6296 14.8685 28.8889 13.3611 28.8889C9.62685 28.8889 6.46678 27.4904 3.88089 24.6933C1.295 21.8963 0.00137037 18.48 0 14.4444C0 10.4074 1.29363 6.99111 3.88089 4.19556C6.46815 1.4 9.62822 0.00148148 13.3611 0C17.0954 0 20.2554 1.39852 22.8413 4.19556C25.4272 6.99259 26.7209 10.4089 26.7222 14.4444C26.7222 16.0741 26.4824 17.6111 26.0028 19.0556C25.5231 20.5 24.8722 21.7778 24.05 22.8889L37 36.8889L34.1222 40ZM13.3611 24.4444C15.9306 24.4444 18.1149 23.4719 19.9142 21.5267C21.7135 19.5815 22.6125 17.2207 22.6111 14.4444C22.6111 11.6667 21.7115 9.30519 19.9122 7.36C18.1129 5.41481 15.9292 4.44296 13.3611 4.44444C10.7917 4.44444 8.6073 5.41704 6.808 7.36222C5.0087 9.30741 4.10974 11.6681 4.11111 14.4444C4.11111 17.2222 5.01076 19.5837 6.81006 21.5289C8.60935 23.4741 10.793 24.4459 13.3611 24.4444Z" fill="#D9D9D9"/>
</svg>
